<svg id="visual" viewBox="0 0 960 300" width="960" height="300" xmlns="http://www.w3.org/2000/svg" xmlns:xlink="http://www.w3.org/1999/xlink" version="1.1"><rect x="0" y="0" width="960" height="300" fill="#002233"></rect><path d="M0 190L22.8 199C45.7 208 91.3 226 137 226.8C182.7 227.7 228.3 211.3 274 208.5C319.7 205.7 365.3 216.3 411.2 225C457 233.7 503 240.3 548.8 243.2C594.7 246 640.3 245 686 237.8C731.7 230.7 777.3 217.3 823 210.2C868.7 203 914.3 202 937.2 201.5L960 201L960 301L937.2 301C914.3 301 868.7 301 823 301C777.3 301 731.7 301 686 301C640.3 301 594.7 301 548.8 301C503 301 457 301 411.2 301C365.3 301 319.7 301 274 301C228.3 301 182.7 301 137 301C91.3 301 45.7 301 22.8 301L0 301Z" fill="#21887e" stroke-linecap="round" stroke-linejoin="miter"></path></svg>